<svg width="24" height="24" viewBox="0 0 24 24" fill="none" xmlns="http://www.w3.org/2000/svg">
<path opacity="0.5" d="M9.99991 20H13.9999C17.7709 20 19.6569 20 20.8279 18.828C21.9989 17.656 21.9999 15.771 21.9999 12C21.9999 11.558 21.9979 10.392 21.9959 10H1.99991C1.99791 10.392 1.99991 11.558 1.99991 12C1.99991 15.771 1.99991 17.657 3.17091 18.828C4.34191 19.999 6.22991 20 9.99991 20Z" fill="#6A50FF"/>
<path d="M9.995 4H14.005C17.786 4 19.677 4 20.851 5.116C21.697 5.919 21.934 7.076 22 9V10H2V9C2.066 7.075 2.303 5.92 3.149 5.116C4.323 4 6.214 4 9.995 4ZM12.5 15.25C12.3011 15.25 12.1103 15.329 11.9697 15.4697C11.829 15.6103 11.75 15.8011 11.75 16C11.75 16.1989 11.829 16.3897 11.9697 16.5303C12.1103 16.671 12.3011 16.75 12.5 16.75H14C14.1989 16.75 14.3897 16.671 14.5303 16.5303C14.671 16.3897 14.75 16.1989 14.75 16C14.75 15.8011 14.671 15.6103 14.5303 15.4697C14.3897 15.329 14.1989 15.25 14 15.25H12.5ZM6 15.25C5.80109 15.25 5.61032 15.329 5.46967 15.4697C5.32902 15.6103 5.25 15.8011 5.25 16C5.25 16.1989 5.32902 16.3897 5.46967 16.5303C5.61032 16.671 5.80109 16.75 6 16.75H10C10.1989 16.75 10.3897 16.671 10.5303 16.5303C10.671 16.3897 10.75 16.1989 10.75 16C10.75 15.8011 10.671 15.6103 10.5303 15.4697C10.3897 15.329 10.1989 15.25 10 15.25H6Z" fill="#6A50FF"/>
</svg>
