<svg width="34" height="34" viewBox="0 0 34 34" fill="none" xmlns="http://www.w3.org/2000/svg">
<path opacity="0.5" d="M14.1667 28.3334H19.8333C25.1756 28.3334 27.8474 28.3334 29.5063 26.6731C31.1652 25.0127 31.1667 22.3423 31.1667 17.0001C31.1667 16.3739 31.1638 14.7221 31.161 14.1667H2.83332C2.83049 14.7221 2.83332 16.3739 2.83332 17.0001C2.83332 22.3423 2.83332 25.0142 4.49224 26.6731C6.15115 28.332 8.82582 28.3334 14.1667 28.3334Z" fill="#FEFEFE"/>
<path d="M14.1596 5.66675H19.8404C25.1968 5.66675 27.8758 5.66675 29.5389 7.24775C30.7374 8.38533 31.0732 10.0244 31.1667 12.7501V14.1667H2.83334V12.7501C2.92684 10.023 3.26259 8.38675 4.46109 7.24775C6.12426 5.66675 8.80318 5.66675 14.1596 5.66675ZM17.7083 21.6042C17.4266 21.6042 17.1563 21.7162 16.957 21.9154C16.7578 22.1147 16.6458 22.385 16.6458 22.6667C16.6458 22.9485 16.7578 23.2188 16.957 23.418C17.1563 23.6173 17.4266 23.7292 17.7083 23.7292H19.8333C20.1151 23.7292 20.3854 23.6173 20.5846 23.418C20.7839 23.2188 20.8958 22.9485 20.8958 22.6667C20.8958 22.385 20.7839 22.1147 20.5846 21.9154C20.3854 21.7162 20.1151 21.6042 19.8333 21.6042H17.7083ZM8.50001 21.6042C8.21822 21.6042 7.94797 21.7162 7.74871 21.9154C7.54945 22.1147 7.43751 22.385 7.43751 22.6667C7.43751 22.9485 7.54945 23.2188 7.74871 23.418C7.94797 23.6173 8.21822 23.7292 8.50001 23.7292H14.1667C14.4485 23.7292 14.7187 23.6173 14.918 23.418C15.1172 23.2188 15.2292 22.9485 15.2292 22.6667C15.2292 22.385 15.1172 22.1147 14.918 21.9154C14.7187 21.7162 14.4485 21.6042 14.1667 21.6042H8.50001Z" fill="#FEFEFE"/>
</svg>
