<svg width="36" height="36" viewBox="0 0 36 36" fill="none" xmlns="http://www.w3.org/2000/svg">
<path d="M9.44444 30.8805C8.61944 30.8805 7.91344 30.587 7.32644 30C6.73944 29.413 6.44544 28.7065 6.44444 27.8805V9C6.44444 8.175 6.73844 7.469 7.32644 6.882C7.91444 6.295 8.62044 6.001 9.44444 6H27.4444C28.2694 6 28.9759 6.294 29.5639 6.882C30.1519 7.47 30.4454 8.176 30.4444 9V27.8805C30.4444 28.7055 30.1509 29.412 29.5639 30C28.9769 30.588 28.2704 30.8815 27.4444 30.8805H9.44444ZM16.9444 19.5L20.6944 17.25L24.4444 19.5V9H16.9444V19.5Z" fill="#FEFEFE"/>
</svg>
