<svg width="32" height="32" viewBox="0 0 32 32" fill="none" xmlns="http://www.w3.org/2000/svg">
<path d="M5 25.2571V12.9143C5 12.48 5.09762 12.0686 5.29287 11.68C5.48812 11.2914 5.75717 10.9714 6.1 10.72L14.35 4.54857C14.8312 4.18286 15.3812 4 16 4C16.6187 4 17.1687 4.18286 17.65 4.54857L25.9 10.72C26.2437 10.9714 26.5132 11.2914 26.7085 11.68C26.9037 12.0686 27.0009 12.48 27 12.9143V25.2571C27 26.0114 26.7305 26.6574 26.1915 27.195C25.6525 27.7326 25.0053 28.0009 24.25 28H20.125C19.7354 28 19.4091 27.8683 19.146 27.605C18.8829 27.3417 18.7509 27.0162 18.75 26.6286V19.7714C18.75 19.3829 18.618 19.0574 18.354 18.795C18.09 18.5326 17.7637 18.4009 17.375 18.4H14.625C14.2354 18.4 13.9091 18.5317 13.646 18.795C13.3829 19.0583 13.2509 19.3838 13.25 19.7714V26.6286C13.25 27.0171 13.118 27.3431 12.854 27.6064C12.59 27.8697 12.2637 28.0009 11.875 28H7.75C6.99375 28 6.34658 27.7317 5.8085 27.195C5.27042 26.6583 5.00092 26.0123 5 25.2571Z" fill="#6A50FF"/>
</svg>
